<svg xmlns="http://www.w3.org/2000/svg" width="1440" viewBox="0 0 1440 810" height="810" version="1.0"><path fill="#F8A30E" d="M 492.175781 404.988281 L 492.175781 243.007812 L 522.175781 243.007812 L 522.175781 404.988281 L 492.175781 404.988281"/><path fill="#F8A30E" d="M 492.175781 374.75 L 562.675781 374.75 L 562.675781 404.75 L 492.175781 404.75 L 492.175781 374.75"/><path fill="#F8A30E" d="M 685.25 404.988281 L 685.25 243.007812 L 715.25 243.007812 L 715.25 404.988281 L 685.25 404.988281"/><path fill="#F8A30E" d="M 589.363281 374.75 L 715.359375 374.75 L 715.359375 404.75 L 589.363281 404.75 L 589.363281 374.75"/><path fill="#F8A30E" d="M 589.359375 404.992188 L 589.359375 299.996094 L 619.359375 299.996094 L 619.359375 404.992188 L 589.359375 404.992188"/><path fill="#F8A30E" d="M 546.589844 300.074219 L 617.085938 300.074219 L 617.085938 330.074219 L 546.589844 330.074219 L 546.589844 300.074219"/><path fill="#E96310" d="M 510.242188 221.75 L 604.101562 127.890625 L 621.601562 145.390625 L 527.742188 239.25 L 510.242188 221.75"/><path fill="#E96310" d="M 603.8125 128.070312 L 697.671875 221.933594 L 680.171875 239.433594 L 586.308594 145.570312 L 603.8125 128.070312"/><path fill="#E96310" d="M 492.230469 239.921875 L 510.785156 221.367188 L 528.289062 238.867188 L 492.230469 239.921875"/><path fill="#E96310" d="M 680.144531 239.546875 L 697.644531 222.042969 L 715.140625 239.539062 L 680.144531 239.546875"/><g fill="#E96310"><g><g><path d="M 23.953125 -52.65625 L 2.96875 -52.65625 L 2.96875 -51.40625 L 7.171875 -51.40625 L 7.171875 -1.25 L 2.96875 -1.25 L 2.96875 0 L 23.953125 0 L 23.953125 -1.25 L 19.734375 -1.25 L 19.734375 -27.21875 L 34.46875 -27.21875 L 34.46875 -1.25 L 30.265625 -1.25 L 30.265625 0 L 51.25 0 L 51.25 -1.25 L 47.03125 -1.25 L 47.03125 -51.484375 L 51.25 -51.484375 L 51.25 -52.734375 L 30.265625 -52.734375 L 30.265625 -51.484375 L 34.46875 -51.484375 L 34.46875 -28.9375 L 19.734375 -28.9375 L 19.734375 -51.40625 L 23.953125 -51.40625 Z M 23.953125 -52.65625" transform="translate(386.854 490.87)"/></g></g></g><g fill="#E96310"><g><g><path d="M 1.25 -16.609375 C 1.25 -14.429688 1.613281 -12.285156 2.34375 -10.171875 C 3.070312 -8.066406 4.148438 -6.195312 5.578125 -4.5625 C 7.003906 -2.925781 8.820312 -1.597656 11.03125 -0.578125 C 13.25 0.429688 15.835938 0.9375 18.796875 0.9375 C 21.765625 0.9375 24.351562 0.429688 26.5625 -0.578125 C 28.769531 -1.597656 30.585938 -2.925781 32.015625 -4.5625 C 33.441406 -6.195312 34.519531 -8.066406 35.25 -10.171875 C 35.976562 -12.285156 36.34375 -14.429688 36.34375 -16.609375 C 36.34375 -18.796875 35.976562 -20.941406 35.25 -23.046875 C 34.519531 -25.148438 33.441406 -27.019531 32.015625 -28.65625 C 30.585938 -30.300781 28.769531 -31.628906 26.5625 -32.640625 C 24.351562 -33.648438 21.765625 -34.15625 18.796875 -34.15625 C 15.835938 -34.15625 13.25 -33.648438 11.03125 -32.640625 C 8.820312 -31.628906 7.003906 -30.300781 5.578125 -28.65625 C 4.148438 -27.019531 3.070312 -25.148438 2.34375 -23.046875 C 1.613281 -20.941406 1.25 -18.796875 1.25 -16.609375 Z M 13.34375 -19.5 C 13.34375 -21.582031 13.394531 -23.453125 13.5 -25.109375 C 13.601562 -26.773438 13.832031 -28.164062 14.1875 -29.28125 C 14.550781 -30.40625 15.097656 -31.265625 15.828125 -31.859375 C 16.554688 -32.460938 17.546875 -32.765625 18.796875 -32.765625 C 20.046875 -32.765625 21.035156 -32.460938 21.765625 -31.859375 C 22.492188 -31.265625 23.039062 -30.40625 23.40625 -29.28125 C 23.769531 -28.164062 24.003906 -26.773438 24.109375 -25.109375 C 24.210938 -23.453125 24.265625 -21.582031 24.265625 -19.5 L 24.265625 -13.421875 C 24.265625 -11.285156 24.210938 -9.410156 24.109375 -7.796875 C 24.003906 -6.179688 23.769531 -4.828125 23.40625 -3.734375 C 23.039062 -2.648438 22.492188 -1.832031 21.765625 -1.28125 C 21.035156 -0.738281 20.046875 -0.46875 18.796875 -0.46875 C 17.546875 -0.46875 16.554688 -0.738281 15.828125 -1.28125 C 15.097656 -1.832031 14.550781 -2.648438 14.1875 -3.734375 C 13.832031 -4.828125 13.601562 -6.179688 13.5 -7.796875 C 13.394531 -9.410156 13.34375 -11.285156 13.34375 -13.421875 Z M 13.34375 -19.5" transform="translate(440.51 490.87)"/></g></g></g><g fill="#E96310"><g><g><path d="M 17.78125 -28.703125 L 17.78125 -35.328125 L 1.953125 -32.6875 L 1.953125 -31.359375 L 6.078125 -32.0625 L 6.078125 -1.25 L 1.953125 -1.25 L 1.953125 0 L 21.140625 0 L 21.140625 -1.25 L 17.78125 -1.25 L 17.78125 -23.015625 C 17.78125 -23.941406 17.945312 -24.953125 18.28125 -26.046875 C 18.625 -27.140625 19.109375 -28.15625 19.734375 -29.09375 C 20.359375 -30.03125 21.085938 -30.796875 21.921875 -31.390625 C 22.753906 -31.992188 23.660156 -32.296875 24.640625 -32.296875 C 25.785156 -32.296875 26.617188 -31.722656 27.140625 -30.578125 C 27.660156 -29.429688 27.921875 -27.25 27.921875 -24.03125 L 27.921875 -1.25 L 24.5625 -1.25 L 24.5625 0 L 42.984375 0 L 42.984375 -1.25 L 39.625 -1.25 L 39.625 -22.9375 C 39.625 -24.019531 39.832031 -25.132812 40.25 -26.28125 C 40.664062 -27.425781 41.195312 -28.441406 41.84375 -29.328125 C 42.5 -30.210938 43.226562 -30.941406 44.03125 -31.515625 C 44.832031 -32.085938 45.625 -32.375 46.40625 -32.375 C 47.8125 -32.375 48.722656 -31.671875 49.140625 -30.265625 C 49.554688 -28.859375 49.765625 -26.648438 49.765625 -23.640625 L 49.765625 -1.25 L 46.40625 -1.25 L 46.40625 0 L 64.8125 0 L 64.8125 -1.25 L 61.46875 -1.25 L 61.46875 -22.859375 C 61.46875 -26.492188 60.425781 -29.320312 58.34375 -31.34375 C 56.257812 -33.375 53.242188 -34.390625 49.296875 -34.390625 C 47.734375 -34.390625 46.40625 -34.195312 45.3125 -33.8125 C 44.226562 -33.425781 43.304688 -32.929688 42.546875 -32.328125 C 41.796875 -31.734375 41.1875 -31.082031 40.71875 -30.375 C 40.25 -29.675781 39.832031 -29.039062 39.46875 -28.46875 C 38.582031 -30.445312 37.242188 -31.914062 35.453125 -32.875 C 33.660156 -33.832031 31.070312 -34.3125 27.6875 -34.3125 C 26.28125 -34.3125 25.054688 -34.15625 24.015625 -33.84375 C 22.984375 -33.539062 22.085938 -33.140625 21.328125 -32.640625 C 20.578125 -32.148438 19.914062 -31.566406 19.34375 -30.890625 C 18.769531 -30.210938 18.25 -29.484375 17.78125 -28.703125 Z M 17.78125 -28.703125" transform="translate(478.1 490.87)"/></g></g></g><g fill="#E96310"><g><g><path d="M 36.578125 -19.265625 C 36.367188 -20.671875 35.9375 -22.226562 35.28125 -23.9375 C 34.632812 -25.65625 33.648438 -27.269531 32.328125 -28.78125 C 31.003906 -30.289062 29.25 -31.5625 27.0625 -32.59375 C 24.882812 -33.632812 22.128906 -34.15625 18.796875 -34.15625 C 15.835938 -34.15625 13.25 -33.648438 11.03125 -32.640625 C 8.820312 -31.628906 6.976562 -30.300781 5.5 -28.65625 C 4.019531 -27.019531 2.914062 -25.148438 2.1875 -23.046875 C 1.457031 -20.941406 1.09375 -18.796875 1.09375 -16.609375 C 1.09375 -14.429688 1.457031 -12.285156 2.1875 -10.171875 C 2.914062 -8.066406 4.019531 -6.195312 5.5 -4.5625 C 6.976562 -2.925781 8.820312 -1.597656 11.03125 -0.578125 C 13.25 0.429688 15.835938 0.9375 18.796875 0.9375 C 20.878906 0.9375 22.789062 0.660156 24.53125 0.109375 C 26.269531 -0.429688 27.828125 -1.171875 29.203125 -2.109375 C 30.585938 -3.046875 31.757812 -4.125 32.71875 -5.34375 C 33.675781 -6.5625 34.414062 -7.847656 34.9375 -9.203125 C 35.09375 -9.566406 35.171875 -9.90625 35.171875 -10.21875 C 35.171875 -10.738281 34.988281 -11 34.625 -11 C 34.3125 -11 34.078125 -10.894531 33.921875 -10.6875 C 33.773438 -10.476562 33.570312 -10.140625 33.3125 -9.671875 C 32.738281 -8.523438 32.019531 -7.421875 31.15625 -6.359375 C 30.300781 -5.296875 29.273438 -4.347656 28.078125 -3.515625 C 26.878906 -2.679688 25.515625 -2.015625 23.984375 -1.515625 C 22.453125 -1.023438 20.722656 -0.78125 18.796875 -0.78125 C 18.015625 -0.78125 17.3125 -0.882812 16.6875 -1.09375 C 16.0625 -1.300781 15.53125 -1.691406 15.09375 -2.265625 C 14.65625 -2.835938 14.316406 -3.628906 14.078125 -4.640625 C 13.847656 -5.648438 13.734375 -6.9375 13.734375 -8.5 L 13.734375 -19.265625 Z M 13.734375 -26.515625 C 13.734375 -30.679688 15.394531 -32.765625 18.71875 -32.765625 C 21.945312 -32.765625 23.5625 -30.679688 23.5625 -26.515625 L 23.5625 -20.75 L 13.734375 -20.75 Z M 13.734375 -26.515625" transform="translate(544.157 490.87)"/></g></g></g><g fill="#E96310"><g><g><path d="M 35.40625 -53.203125 L 33.390625 -50.15625 C 32.296875 -50.882812 30.835938 -51.640625 29.015625 -52.421875 C 27.191406 -53.203125 24.878906 -53.59375 22.078125 -53.59375 C 19.210938 -53.59375 16.703125 -53.082031 14.546875 -52.0625 C 12.390625 -51.050781 10.582031 -49.738281 9.125 -48.125 C 7.664062 -46.507812 6.5625 -44.660156 5.8125 -42.578125 C 5.0625 -40.503906 4.6875 -38.425781 4.6875 -36.34375 C 4.6875 -32.65625 5.566406 -29.5625 7.328125 -27.0625 C 9.097656 -24.570312 11.984375 -22.753906 15.984375 -21.609375 C 16.921875 -21.347656 17.9375 -21.085938 19.03125 -20.828125 C 20.125 -20.566406 21.203125 -20.316406 22.265625 -20.078125 C 23.335938 -19.847656 24.3125 -19.628906 25.1875 -19.421875 C 26.070312 -19.210938 26.75 -19.03125 27.21875 -18.875 C 29.664062 -18.195312 31.316406 -17.179688 32.171875 -15.828125 C 33.035156 -14.484375 33.46875 -12.71875 33.46875 -10.53125 C 33.46875 -9.488281 33.242188 -8.378906 32.796875 -7.203125 C 32.359375 -6.035156 31.679688 -4.957031 30.765625 -3.96875 C 29.859375 -2.988281 28.6875 -2.160156 27.25 -1.484375 C 25.820312 -0.804688 24.148438 -0.46875 22.234375 -0.46875 C 19.628906 -0.46875 17.40625 -0.9375 15.5625 -1.875 C 13.71875 -2.8125 12.144531 -4.03125 10.84375 -5.53125 C 9.539062 -7.039062 8.472656 -8.734375 7.640625 -10.609375 C 6.804688 -12.484375 6.128906 -14.351562 5.609375 -16.21875 C 5.398438 -16.945312 5.164062 -17.3125 4.90625 -17.3125 C 4.757812 -17.3125 4.644531 -17.234375 4.5625 -17.078125 C 4.488281 -16.921875 4.453125 -16.582031 4.453125 -16.0625 L 4.453125 -0.78125 C 4.453125 -0.46875 4.488281 -0.179688 4.5625 0.078125 C 4.644531 0.335938 4.8125 0.46875 5.0625 0.46875 C 5.425781 0.46875 5.84375 0.101562 6.3125 -0.625 L 8.734375 -4.296875 C 9.253906 -3.773438 9.890625 -3.210938 10.640625 -2.609375 C 11.398438 -2.015625 12.3125 -1.457031 13.375 -0.9375 C 14.4375 -0.414062 15.679688 0.0234375 17.109375 0.390625 C 18.546875 0.753906 20.253906 0.9375 22.234375 0.9375 C 25.296875 0.9375 27.972656 0.429688 30.265625 -0.578125 C 32.554688 -1.597656 34.453125 -2.9375 35.953125 -4.59375 C 37.460938 -6.257812 38.59375 -8.160156 39.34375 -10.296875 C 40.101562 -12.429688 40.484375 -14.613281 40.484375 -16.84375 C 40.484375 -21.632812 39.300781 -25.5 36.9375 -28.4375 C 34.570312 -31.375 31.070312 -33.28125 26.4375 -34.15625 C 25.289062 -34.363281 23.882812 -34.660156 22.21875 -35.046875 C 20.5625 -35.441406 19.109375 -35.847656 17.859375 -36.265625 C 16.242188 -36.835938 15.085938 -37.757812 14.390625 -39.03125 C 13.691406 -40.3125 13.34375 -41.914062 13.34375 -43.84375 C 13.34375 -44.875 13.523438 -45.894531 13.890625 -46.90625 C 14.253906 -47.925781 14.796875 -48.828125 15.515625 -49.609375 C 16.242188 -50.390625 17.15625 -51.015625 18.25 -51.484375 C 19.34375 -51.953125 20.617188 -52.1875 22.078125 -52.1875 C 23.273438 -52.1875 24.507812 -52.015625 25.78125 -51.671875 C 27.050781 -51.335938 28.285156 -50.726562 29.484375 -49.84375 C 30.679688 -48.957031 31.796875 -47.707031 32.828125 -46.09375 C 33.867188 -44.488281 34.726562 -42.4375 35.40625 -39.9375 C 35.5625 -39.207031 35.796875 -38.84375 36.109375 -38.84375 C 36.367188 -38.84375 36.507812 -38.957031 36.53125 -39.1875 C 36.5625 -39.425781 36.578125 -39.703125 36.578125 -40.015625 L 36.578125 -53.125 C 36.578125 -53.632812 36.445312 -53.890625 36.1875 -53.890625 C 35.925781 -53.890625 35.664062 -53.660156 35.40625 -53.203125 Z M 35.40625 -53.203125" transform="translate(581.591 490.87)"/></g></g></g><g fill="#E96310"><g><g><path d="M 21.84375 19.734375 L 21.84375 20.984375 L 41.96875 20.984375 L 41.96875 19.734375 L 37.75 19.734375 L 37.75 -32.0625 L 41.96875 -31.359375 L 41.96875 -32.6875 L 26.046875 -35.328125 L 26.046875 -29.09375 C 25.160156 -30.65625 24.03125 -31.878906 22.65625 -32.765625 C 21.28125 -33.648438 19.65625 -34.09375 17.78125 -34.09375 C 15.238281 -34.09375 13.003906 -33.582031 11.078125 -32.5625 C 9.148438 -31.550781 7.550781 -30.222656 6.28125 -28.578125 C 5.007812 -26.941406 4.0625 -25.082031 3.4375 -23 C 2.8125 -20.925781 2.5 -18.796875 2.5 -16.609375 C 2.5 -14.429688 2.8125 -12.285156 3.4375 -10.171875 C 4.0625 -8.066406 5.007812 -6.195312 6.28125 -4.5625 C 7.550781 -2.925781 9.148438 -1.613281 11.078125 -0.625 C 13.003906 0.363281 15.238281 0.859375 17.78125 0.859375 C 19.082031 0.859375 20.175781 0.738281 21.0625 0.5 C 21.945312 0.269531 22.6875 -0.0351562 23.28125 -0.421875 C 23.882812 -0.816406 24.390625 -1.273438 24.796875 -1.796875 C 25.210938 -2.316406 25.628906 -2.835938 26.046875 -3.359375 L 26.046875 19.734375 Z M 26.046875 -24.109375 L 26.046875 -8.421875 C 26.046875 -7.691406 25.875 -6.898438 25.53125 -6.046875 C 25.195312 -5.191406 24.742188 -4.382812 24.171875 -3.625 C 23.609375 -2.875 22.9375 -2.238281 22.15625 -1.71875 C 21.375 -1.195312 20.515625 -0.9375 19.578125 -0.9375 C 18.847656 -0.9375 18.234375 -1.117188 17.734375 -1.484375 C 17.242188 -1.847656 16.84375 -2.507812 16.53125 -3.46875 C 16.21875 -4.425781 15.984375 -5.710938 15.828125 -7.328125 C 15.671875 -8.941406 15.59375 -11 15.59375 -13.5 L 15.59375 -19.734375 C 15.59375 -22.441406 15.671875 -24.585938 15.828125 -26.171875 C 15.984375 -27.753906 16.226562 -28.960938 16.5625 -29.796875 C 16.90625 -30.628906 17.320312 -31.175781 17.8125 -31.4375 C 18.3125 -31.695312 18.898438 -31.828125 19.578125 -31.828125 C 20.410156 -31.828125 21.226562 -31.523438 22.03125 -30.921875 C 22.84375 -30.328125 23.53125 -29.613281 24.09375 -28.78125 C 24.664062 -27.945312 25.132812 -27.085938 25.5 -26.203125 C 25.863281 -25.316406 26.046875 -24.617188 26.046875 -24.109375 Z M 26.046875 -24.109375" transform="translate(625.03 490.87)"/></g></g></g><g fill="#E96310"><g><g><path d="M 6.234375 -32.0625 L 6.234375 -11.78125 C 6.234375 -3.300781 10.132812 0.9375 17.9375 0.9375 C 20.695312 0.9375 22.84375 0.3125 24.375 -0.9375 C 25.90625 -2.1875 27.0625 -3.613281 27.84375 -5.21875 L 27.84375 0 L 43.84375 0 L 43.84375 -1.25 L 39.703125 -1.25 L 39.703125 -35.328125 L 23.875 -32.6875 L 23.875 -31.359375 L 28 -32.0625 L 28 -11.546875 C 28 -10.660156 27.816406 -9.65625 27.453125 -8.53125 C 27.085938 -7.414062 26.601562 -6.363281 26 -5.375 C 25.40625 -4.394531 24.707031 -3.566406 23.90625 -2.890625 C 23.101562 -2.210938 22.257812 -1.875 21.375 -1.875 C 20.070312 -1.875 19.171875 -2.316406 18.671875 -3.203125 C 18.179688 -4.085938 17.9375 -5.671875 17.9375 -7.953125 L 17.9375 -35.328125 L 2.03125 -32.6875 L 2.03125 -31.359375 Z M 6.234375 -32.0625" transform="translate(668.626 490.87)"/></g></g></g><g fill="#E96310"><g><g><path d="M 17.9375 -34.09375 C 14.507812 -34.09375 11.675781 -33.570312 9.4375 -32.53125 C 7.195312 -31.488281 6.078125 -29.925781 6.078125 -27.84375 C 6.078125 -26.332031 6.503906 -25.253906 7.359375 -24.609375 C 8.222656 -23.960938 9.203125 -23.640625 10.296875 -23.640625 C 11.179688 -23.640625 11.894531 -23.78125 12.4375 -24.0625 C 12.988281 -24.34375 13.421875 -24.675781 13.734375 -25.0625 C 14.046875 -25.457031 14.253906 -25.890625 14.359375 -26.359375 C 14.460938 -26.828125 14.515625 -27.21875 14.515625 -27.53125 C 14.515625 -28.832031 14.019531 -29.796875 13.03125 -30.421875 C 12.664062 -30.628906 12.484375 -30.890625 12.484375 -31.203125 C 12.484375 -31.617188 12.867188 -31.96875 13.640625 -32.25 C 14.421875 -32.539062 15.878906 -32.6875 18.015625 -32.6875 C 19.941406 -32.6875 21.191406 -32.164062 21.765625 -31.125 C 22.335938 -30.082031 22.625 -28.625 22.625 -26.75 L 22.625 -20.515625 L 14.203125 -20.515625 C 12.066406 -20.515625 10.203125 -20.1875 8.609375 -19.53125 C 7.023438 -18.882812 5.703125 -18.039062 4.640625 -17 C 3.578125 -15.957031 2.785156 -14.773438 2.265625 -13.453125 C 1.742188 -12.128906 1.484375 -10.789062 1.484375 -9.4375 C 1.484375 -8.03125 1.726562 -6.691406 2.21875 -5.421875 C 2.71875 -4.148438 3.457031 -3.046875 4.4375 -2.109375 C 5.425781 -1.171875 6.660156 -0.429688 8.140625 0.109375 C 9.628906 0.660156 11.363281 0.9375 13.34375 0.9375 C 14.632812 0.9375 15.785156 0.804688 16.796875 0.546875 C 17.816406 0.285156 18.71875 -0.0507812 19.5 -0.46875 C 20.28125 -0.882812 20.96875 -1.328125 21.5625 -1.796875 C 22.164062 -2.265625 22.675781 -2.707031 23.09375 -3.125 C 23.5625 -2.03125 24.492188 -1.078125 25.890625 -0.265625 C 27.296875 0.535156 29.328125 0.9375 31.984375 0.9375 C 33.847656 0.9375 35.328125 0.726562 36.421875 0.3125 C 37.515625 -0.101562 38.359375 -0.597656 38.953125 -1.171875 C 39.554688 -1.742188 39.945312 -2.367188 40.125 -3.046875 C 40.3125 -3.722656 40.40625 -4.34375 40.40625 -4.90625 C 40.40625 -5.320312 40.25 -5.53125 39.9375 -5.53125 C 39.570312 -5.53125 39.363281 -5.300781 39.3125 -4.84375 C 39.15625 -4.0625 38.90625 -3.382812 38.5625 -2.8125 C 38.226562 -2.238281 37.617188 -1.953125 36.734375 -1.953125 C 35.691406 -1.953125 35.023438 -2.300781 34.734375 -3 C 34.453125 -3.707031 34.3125 -4.679688 34.3125 -5.921875 L 34.3125 -22.3125 C 34.3125 -24.488281 34.015625 -26.332031 33.421875 -27.84375 C 32.828125 -29.351562 31.863281 -30.578125 30.53125 -31.515625 C 29.207031 -32.453125 27.519531 -33.113281 25.46875 -33.5 C 23.414062 -33.894531 20.90625 -34.09375 17.9375 -34.09375 Z M 22.625 -19.109375 L 22.625 -5.453125 C 22.625 -4.992188 22.398438 -4.515625 21.953125 -4.015625 C 21.515625 -3.523438 20.984375 -3.082031 20.359375 -2.6875 C 19.734375 -2.300781 19.109375 -1.976562 18.484375 -1.71875 C 17.859375 -1.457031 17.390625 -1.328125 17.078125 -1.328125 C 15.773438 -1.328125 14.851562 -1.960938 14.3125 -3.234375 C 13.769531 -4.503906 13.5 -6.597656 13.5 -9.515625 C 13.5 -12.378906 13.953125 -14.691406 14.859375 -16.453125 C 15.765625 -18.222656 17.285156 -19.109375 19.421875 -19.109375 Z M 22.625 -19.109375" transform="translate(713.47 490.87)"/></g></g></g><g fill="#E96310"><g><g><path d="M 17.78125 -28.625 L 17.78125 -35.328125 L 1.875 -32.6875 L 1.875 -31.359375 L 6.078125 -32.0625 L 6.078125 -1.25 L 1.875 -1.25 L 1.875 0 L 22 0 L 22 -1.25 L 17.78125 -1.25 L 17.78125 -23.796875 C 17.78125 -24.566406 17.960938 -25.445312 18.328125 -26.4375 C 18.691406 -27.425781 19.222656 -28.375 19.921875 -29.28125 C 20.628906 -30.195312 21.453125 -30.96875 22.390625 -31.59375 C 23.328125 -32.21875 24.390625 -32.53125 25.578125 -32.53125 C 25.003906 -32.164062 24.40625 -31.617188 23.78125 -30.890625 C 23.164062 -30.160156 22.859375 -29.171875 22.859375 -27.921875 C 22.859375 -26.410156 23.347656 -25.1875 24.328125 -24.25 C 25.316406 -23.320312 26.671875 -22.859375 28.390625 -22.859375 C 29.742188 -22.859375 30.992188 -23.285156 32.140625 -24.140625 C 33.285156 -24.992188 33.859375 -26.304688 33.859375 -28.078125 C 33.859375 -30.109375 33.207031 -31.628906 31.90625 -32.640625 C 30.601562 -33.648438 28.832031 -34.15625 26.59375 -34.15625 C 24.519531 -34.15625 22.726562 -33.632812 21.21875 -32.59375 C 19.707031 -31.5625 18.5625 -30.238281 17.78125 -28.625 Z M 17.78125 -28.625" transform="translate(755.427 490.87)"/></g></g></g><g fill="#E96310"><g><g><path d="M 36.578125 -19.265625 C 36.367188 -20.671875 35.9375 -22.226562 35.28125 -23.9375 C 34.632812 -25.65625 33.648438 -27.269531 32.328125 -28.78125 C 31.003906 -30.289062 29.25 -31.5625 27.0625 -32.59375 C 24.882812 -33.632812 22.128906 -34.15625 18.796875 -34.15625 C 15.835938 -34.15625 13.25 -33.648438 11.03125 -32.640625 C 8.820312 -31.628906 6.976562 -30.300781 5.5 -28.65625 C 4.019531 -27.019531 2.914062 -25.148438 2.1875 -23.046875 C 1.457031 -20.941406 1.09375 -18.796875 1.09375 -16.609375 C 1.09375 -14.429688 1.457031 -12.285156 2.1875 -10.171875 C 2.914062 -8.066406 4.019531 -6.195312 5.5 -4.5625 C 6.976562 -2.925781 8.820312 -1.597656 11.03125 -0.578125 C 13.25 0.429688 15.835938 0.9375 18.796875 0.9375 C 20.878906 0.9375 22.789062 0.660156 24.53125 0.109375 C 26.269531 -0.429688 27.828125 -1.171875 29.203125 -2.109375 C 30.585938 -3.046875 31.757812 -4.125 32.71875 -5.34375 C 33.675781 -6.5625 34.414062 -7.847656 34.9375 -9.203125 C 35.09375 -9.566406 35.171875 -9.90625 35.171875 -10.21875 C 35.171875 -10.738281 34.988281 -11 34.625 -11 C 34.3125 -11 34.078125 -10.894531 33.921875 -10.6875 C 33.773438 -10.476562 33.570312 -10.140625 33.3125 -9.671875 C 32.738281 -8.523438 32.019531 -7.421875 31.15625 -6.359375 C 30.300781 -5.296875 29.273438 -4.347656 28.078125 -3.515625 C 26.878906 -2.679688 25.515625 -2.015625 23.984375 -1.515625 C 22.453125 -1.023438 20.722656 -0.78125 18.796875 -0.78125 C 18.015625 -0.78125 17.3125 -0.882812 16.6875 -1.09375 C 16.0625 -1.300781 15.53125 -1.691406 15.09375 -2.265625 C 14.65625 -2.835938 14.316406 -3.628906 14.078125 -4.640625 C 13.847656 -5.648438 13.734375 -6.9375 13.734375 -8.5 L 13.734375 -19.265625 Z M 13.734375 -26.515625 C 13.734375 -30.679688 15.394531 -32.765625 18.71875 -32.765625 C 21.945312 -32.765625 23.5625 -30.679688 23.5625 -26.515625 L 23.5625 -20.75 L 13.734375 -20.75 Z M 13.734375 -26.515625" transform="translate(790.678 490.87)"/></g></g></g></svg>